HIERARCHY
ROOT Hips
{
	OFFSET -0.001795 -0.223333 0.028219
	CHANNELS 6 Xposition Yposition Zposition Zrotation Yrotation Xrotation 
	JOINT LeftUpLeg
	{
		OFFSET 0.069520 -0.091406 -0.006815
		CHANNELS 3 Zrotation Yrotation Xrotation
		JOINT LeftLeg
		{
			OFFSET 0.034277 -0.375199 -0.004496
			CHANNELS 3 Zrotation Yrotation Xrotation
			JOINT LeftFoot
			{
				OFFSET -0.013596 -0.397961 -0.043693
				CHANNELS 3 Zrotation Yrotation Xrotation
				JOINT LeftToe
				{
					OFFSET 0.026358 -0.055791 0.119288
					CHANNELS 3 Zrotation Yrotation Xrotation
					End Site
					{
						OFFSET 0.000000 0.000000 0.000000
					}
				}
			}
		}
	}
	JOINT RightUpLeg
	{
		OFFSET -0.067670 -0.090522 -0.004320
		CHANNELS 3 Zrotation Yrotation Xrotation
		JOINT RightLeg
		{
			OFFSET -0.038290 -0.382569 -0.008850
			CHANNELS 3 Zrotation Yrotation Xrotation
			JOINT RightFoot
			{
				OFFSET 0.015774 -0.398415 -0.042312
				CHANNELS 3 Zrotation Yrotation Xrotation
				JOINT RightToe
				{
					OFFSET -0.025372 -0.048144 0.123348
					CHANNELS 3 Zrotation Yrotation Xrotation
					End Site
					{
						OFFSET 0.000000 0.000000 0.000000
					}
				}
			}
		}
	}
	JOINT Spine
	{
		OFFSET -0.002533 0.108963 -0.026696
		CHANNELS 3 Zrotation Yrotation Xrotation
		JOINT Spine1
		{
			OFFSET 0.005487 0.135180 0.001092
			CHANNELS 3 Zrotation Yrotation Xrotation
			JOINT Spine2
			{
				OFFSET 0.001457 0.052922 0.025425
				CHANNELS 3 Zrotation Yrotation Xrotation
				JOINT Neck
				{
					OFFSET -0.002778 0.213870 -0.042857
					CHANNELS 3 Zrotation Yrotation Xrotation
					JOINT Head
					{
						OFFSET 0.005152 0.064970 0.051349
						CHANNELS 3 Zrotation Yrotation Xrotation
						End Site
						{
							OFFSET 0.000000 0.000000 0.000000
						}
					}
				}
				JOINT LeftShoulder
				{
					OFFSET 0.078845 0.121749 -0.034090
					CHANNELS 3 Zrotation Yrotation Xrotation
					JOINT LeftArm
					{
						OFFSET 0.090977 0.030469 -0.008868
						CHANNELS 3 Zrotation Yrotation Xrotation
						JOINT LeftForeArm
						{
							OFFSET 0.259612 -0.012772 -0.027456
							CHANNELS 3 Zrotation Yrotation Xrotation
							JOINT LeftHand
							{
								OFFSET 0.249234 0.008986 -0.001171
								CHANNELS 3 Zrotation Yrotation Xrotation
								End Site
								{
									OFFSET 0.000000 0.000000 0.000000
								}
							}
						}
					}
				}
				JOINT RightShoulder
				{
					OFFSET -0.081759 0.118833 -0.038615
					CHANNELS 3 Zrotation Yrotation Xrotation
					JOINT RightArm
					{
						OFFSET -0.096012 0.032551 -0.009143
						CHANNELS 3 Zrotation Yrotation Xrotation
						JOINT RightForeArm
						{
							OFFSET -0.253742 -0.013329 -0.021401
							CHANNELS 3 Zrotation Yrotation Xrotation
							JOINT RightHand
							{
								OFFSET -0.255298 0.007772 -0.005559
								CHANNELS 3 Zrotation Yrotation Xrotation
								End Site
								{
									OFFSET 0.000000 0.000000 0.000000
								}
							}
						}
					}
				}
			}
		}
	}
}
MOTION
Frames: 5
Frame Time: 0.050000
0.000000 0.216458 0.000000 -3.749933 -5.927280 -36.931599 41.452398 21.360579 -61.702730 -10.985724 36.215188 153.291074 7.212512 30.398976 -50.116457 0.000000 0.000000 0.000000 -32.497224 -11.518839 -67.315580 8.370051 -37.674021 160.585350 -32.363228 -58.115960 14.827642 0.000000 0.000000 0.000000 -2.718480 0.363980 80.116665 -6.318003 3.236160 -7.947312 -3.685873 7.226390 4.030072 8.891136 -12.172020 12.725339 0.000000 0.000000 0.000000 8.815308 -45.194357 9.833271 -11.330894 -18.516202 0.090548 10.896136 -53.880656 -5.403813 0.000000 0.000000 0.000000 4.932589 30.236730 9.888231 9.793157 11.482496 -0.445845 -18.711551 58.543191 -8.550952 0.000000 0.000000 0.000000 
-0.001415 0.219438 -0.000926 -2.612788 -8.056872 -37.991959 41.988422 22.711471 -60.188707 -10.842049 31.264501 152.069073 7.171623 27.823599 -48.549665 0.000000 0.000000 0.000000 -29.500814 -8.527377 -69.440094 8.178983 -41.980258 161.443473 -40.024477 -60.943299 23.583849 0.000000 0.000000 0.000000 -3.302870 2.202776 82.587531 -8.508517 4.094064 -10.048725 -2.785766 7.337147 1.935418 7.214342 -13.864874 23.026422 0.000000 0.000000 0.000000 7.806913 -47.504778 10.516134 -8.001540 -17.300179 -0.005520 1.145427 -55.751404 -0.383326 0.000000 0.000000 0.000000 10.475709 30.995944 11.588228 5.724432 9.093288 -0.478869 -11.976685 61.136479 -5.589145 0.000000 0.000000 0.000000 
-0.002227 0.218075 -0.001565 -1.889061 -6.758899 -39.905023 39.434729 21.219536 -62.218596 -9.803749 27.783000 153.304528 7.475483 24.976389 -43.313044 0.000000 0.000000 0.000000 -31.133098 -10.197722 -70.007932 8.347184 -39.580920 160.910637 -41.258178 -60.044036 27.379107 0.000000 0.000000 0.000000 -4.130991 2.386940 83.128342 -2.029125 1.079552 -5.428338 -9.206492 9.794077 -1.005243 7.416927 -17.449850 26.752232 0.000000 0.000000 0.000000 9.032818 -48.090002 10.769555 -7.212255 -14.194312 -0.051681 -0.602302 -56.880429 -0.725782 0.000000 0.000000 0.000000 8.064941 32.244548 12.309958 6.214727 11.208115 -0.510928 -15.687111 58.208714 -6.235573 0.000000 0.000000 0.000000 
-0.002408 0.214736 -0.002789 -0.509427 -7.979040 -41.543870 38.914708 21.571505 -60.944739 -9.726819 24.650690 152.032803 7.186200 25.375122 -43.415666 0.000000 0.000000 0.000000 -29.959044 -8.552771 -71.024842 9.732092 -46.636865 158.929188 -63.316524 -64.982099 49.895435 0.000000 0.000000 0.000000 -3.062819 2.588329 83.665151 -3.451441 1.859171 -3.866364 -8.790462 7.261896 -1.780631 7.155619 -15.545973 25.955823 0.000000 0.000000 0.000000 13.388601 -47.354392 9.414185 -8.417902 -14.757223 -0.074791 4.510842 -56.718597 -2.963240 0.000000 0.000000 0.000000 3.046813 32.846767 10.563789 7.946019 12.943664 -0.297567 -16.918446 56.467729 -6.726218 0.000000 0.000000 0.000000 
-0.002450 0.213891 -0.003877 -0.503980 -8.661409 -42.166221 37.711826 20.840694 -59.747574 -9.154540 22.196986 152.413462 7.124754 26.121514 -45.359467 0.000000 0.000000 0.000000 -29.055459 -7.585384 -71.115436 11.405975 -47.556398 155.760338 -75.209395 -64.615897 63.811929 0.000000 0.000000 0.000000 -3.646194 3.435878 83.768561 -2.365501 1.260829 -3.511046 -8.991814 9.001722 -1.812413 6.804547 -15.860385 26.192697 0.000000 0.000000 0.000000 15.268072 -48.688678 9.112440 -8.522510 -13.940039 -0.111676 6.879582 -56.264171 -4.593093 0.000000 0.000000 0.000000 2.055334 34.752589 11.244222 7.089503 12.915002 -0.342134 -20.507290 52.681899 -7.596325 0.000000 0.000000 0.000000 
